<svg width="38" height="45" viewBox="0 0 38 45" fill="none" xmlns="http://www.w3.org/2000/svg">
<path d="M18.9482 0.471895L0.300956 23.0751C0.142954 23.266 0.0422557 23.4983 0.0106738 23.7448C-0.020908 23.9912 0.0179363 24.2417 0.12265 24.4667C0.227364 24.6917 0.393604 24.882 0.60187 25.0152C0.810135 25.1484 1.05179 25.219 1.29848 25.2188H13.8679C14.2117 25.2196 14.5412 25.3575 14.7842 25.6024C15.0273 25.8473 15.1642 26.1792 15.165 26.5255V43.6965C15.1657 43.9636 15.2476 44.2242 15.3998 44.443C15.552 44.6619 15.767 44.8284 16.0161 44.9203C16.2651 45.0122 16.5361 45.0249 16.7926 44.9569C17.049 44.8888 17.2786 44.7432 17.4504 44.5396L37.6912 20.5083C37.8516 20.3183 37.9546 20.0859 37.9881 19.8388C38.0216 19.5917 37.9841 19.34 37.8802 19.1136C37.7763 18.8872 37.6102 18.6955 37.4016 18.5611C37.193 18.4268 36.9506 18.3554 36.703 18.3554H22.1879C22.0151 18.3558 21.8439 18.3214 21.6845 18.2541C21.5251 18.1869 21.3807 18.0881 21.2598 17.9637C21.1389 17.8393 21.0439 17.6918 20.9806 17.5298C20.9172 17.3678 20.8867 17.1947 20.8908 17.0206L21.2429 1.33682C21.2491 1.06559 21.1713 0.79914 21.0204 0.574441C20.8695 0.349741 20.6529 0.177936 20.4006 0.0828623C20.1484 -0.012211 19.8731 -0.0258373 19.6128 0.0438742C19.3526 0.113586 19.1203 0.263178 18.9482 0.471895Z" fill="url(#paint0_linear_6_411)"/>
<defs>
<linearGradient id="paint0_linear_6_411" x1="19" y1="0" x2="19" y2="45" gradientUnits="userSpaceOnUse">
<stop stop-color="#FF7A00"/>
<stop offset="1" stop-color="#AD00FE"/>
</linearGradient>
</defs>
</svg>
