<svg width="86" height="87" viewBox="0 0 86 87" fill="none" xmlns="http://www.w3.org/2000/svg">
<circle cx="42.9107" cy="43.52" r="42.9107" fill="url(#paint0_linear_108_2)"/>
<path fill-rule="evenodd" clip-rule="evenodd" d="M43.4206 25.796C56.7978 25.796 68.737 32.8138 76.5809 43.7971C68.737 54.7812 56.7978 61.7981 43.4206 61.7981C30.0443 61.7981 18.1051 54.7812 10.2612 43.7971C18.1051 32.8138 30.0443 25.796 43.4206 25.796Z" fill="white"/>
<path fill-rule="evenodd" clip-rule="evenodd" d="M61.1456 43.7972C61.1456 33.8549 53.0859 25.796 43.1448 25.796C33.2028 25.796 25.1432 33.8549 25.1432 43.7972C25.1432 53.7395 33.2028 61.7984 43.1448 61.7984C53.0859 61.7984 61.1456 53.7395 61.1456 43.7972Z" fill="#86A8FF"/>
<path fill-rule="evenodd" clip-rule="evenodd" d="M43.3835 52.1976C48.1554 52.1976 52.0241 48.3299 52.0241 43.558C52.0241 38.7852 48.1554 34.9165 43.3835 34.9165C38.6116 34.9165 34.743 38.7852 34.743 43.558C34.7429 48.3299 38.6116 52.1976 43.3835 52.1976Z" fill="#0001FE"/>
<defs>
<linearGradient id="paint0_linear_108_2" x1="73" y1="-13" x2="7.92902e-06" y2="86.2624" gradientUnits="userSpaceOnUse">
<stop stop-color="#0001FE"/>
<stop offset="1" stop-color="white"/>
</linearGradient>
</defs>
</svg>
