<svg width="196" height="196" viewBox="0 0 196 196" fill="none" xmlns="http://www.w3.org/2000/svg">
<path d="M126.104 29C95.6866 29 71 53.6921 71 84.1041C71 114.527 95.6866 139.208 126.104 139.208C156.577 139.208 181.208 114.527 181.208 84.1041C181.208 53.6921 156.577 29 126.104 29V29Z" fill="url(#paint0_linear_8_302)"/>
<g filter="url(#filter0_b_8_302)">
<path d="M126.709 113.138C124.872 114.907 124.023 117.471 124.433 119.99L130.617 154.797C131.139 157.747 129.886 160.727 127.413 162.424C124.989 164.185 121.772 164.387 119.138 162.965L87.8694 146.54C86.7822 145.957 85.574 145.642 84.3367 145.603L82.4205 145.598C81.7555 145.695 81.1044 145.905 80.5095 146.229L49.1376 162.548C47.5868 163.322 45.8324 163.592 44.115 163.311C39.9314 162.507 37.1501 158.511 37.8483 154.306L44.2432 119.536C44.6678 116.999 43.834 114.415 42.0079 112.607L16.5476 87.784C14.4183 85.706 13.6849 82.5926 14.6689 79.7884C15.6246 76.9911 18.0488 74.9547 20.9705 74.5037L56.1275 69.5085C58.8011 69.2406 61.1534 67.6212 62.3624 65.2206L77.9406 33.5179C78.3104 32.8119 78.786 32.1628 79.3604 31.6129L79.9982 31.1198C80.3316 30.7531 80.7143 30.4502 81.1393 30.2039L81.9109 29.9234L83.1143 29.4319L86.0912 29.4406C88.749 29.7242 91.0848 31.322 92.3011 33.7014L107.899 65.354C109.023 67.6695 111.218 69.281 113.755 69.6774L148.882 74.8784C151.851 75.3113 154.326 77.3692 155.301 80.2004C156.219 83.0385 155.411 86.1473 153.227 88.1844L126.709 113.138Z" fill="url(#paint1_linear_8_302)"/>
</g>
<mask id="path-3-outside-1_8_302" maskUnits="userSpaceOnUse" x="42.1684" y="71.0764" width="85.5533" height="85.5627" fill="black">
<rect fill="white" x="42.1684" y="71.0764" width="85.5533" height="85.5627"/>
<path fill-rule="evenodd" clip-rule="evenodd" d="M85.246 96.6398L85.1596 122.463L60.7821 128.094C57.5875 128.832 55.0121 125.416 56.6097 122.557L82.1362 76.8047C83.591 74.2061 87.3575 74.2574 88.7664 76.9049L113.439 123.159C114.982 126.054 112.38 129.387 109.202 128.578L85.1596 122.463"/>
</mask>
<path fill-rule="evenodd" clip-rule="evenodd" d="M85.246 96.6398L85.1596 122.463L60.7821 128.094C57.5875 128.832 55.0121 125.416 56.6097 122.557L82.1362 76.8047C83.591 74.2061 87.3575 74.2574 88.7664 76.9049L113.439 123.159C114.982 126.054 112.38 129.387 109.202 128.578L85.1596 122.463" fill="#F7F9FA"/>
<path d="M86.246 96.6431C86.2478 96.0908 85.8016 95.6416 85.2493 95.6398C84.697 95.6379 84.2478 96.0842 84.246 96.6364L86.246 96.6431ZM60.7821 128.094L61.007 129.068L61.0071 129.068L60.7821 128.094ZM56.6097 122.557L57.4827 123.045L57.483 123.044L56.6097 122.557ZM82.1362 76.8047L81.2636 76.3162L81.2629 76.3175L82.1362 76.8047ZM88.7664 76.9049L87.8836 77.3746L87.884 77.3755L88.7664 76.9049ZM113.439 123.159L114.321 122.689L114.321 122.688L113.439 123.159ZM109.202 128.578L109.448 127.609L109.448 127.609L109.202 128.578ZM84.246 96.6364L84.1596 122.46L86.1596 122.467L86.246 96.6431L84.246 96.6364ZM84.9346 121.489L60.557 127.12L61.0071 129.068L85.3847 123.438L84.9346 121.489ZM60.5571 127.12C58.202 127.663 56.3112 125.141 57.4827 123.045L55.7368 122.069C53.7131 125.691 56.973 130 61.007 129.068L60.5571 127.12ZM57.483 123.044L83.0094 77.2919L81.2629 76.3175L55.7365 122.07L57.483 123.044ZM83.0087 77.2932C84.0717 75.3944 86.8413 75.416 87.8836 77.3746L89.6491 76.4351C87.8737 73.0988 83.1102 73.0178 81.2636 76.3162L83.0087 77.2932ZM87.884 77.3755L112.556 123.63L114.321 122.688L89.6487 76.4342L87.884 77.3755ZM112.556 123.629C113.694 125.763 111.779 128.202 109.448 127.609L108.955 129.547C112.981 130.571 116.27 126.345 114.321 122.689L112.556 123.629ZM109.448 127.609L85.4061 121.494L84.9131 123.433L108.955 129.547L109.448 127.609Z" fill="url(#paint2_linear_8_302)" mask="url(#path-3-outside-1_8_302)"/>
<defs>
<filter id="filter0_b_8_302" x="-9.76184" y="5.43188" width="189.436" height="182.473" filterUnits="userSpaceOnUse" color-interpolation-filters="sRGB">
<feFlood flood-opacity="0" result="BackgroundImageFix"/>
<feGaussianBlur in="BackgroundImage" stdDeviation="12"/>
<feComposite in2="SourceAlpha" operator="in" result="effect1_backgroundBlur_8_302"/>
<feBlend mode="normal" in="SourceGraphic" in2="effect1_backgroundBlur_8_302" result="shape"/>
</filter>
<linearGradient id="paint0_linear_8_302" x1="173" y1="36" x2="99" y2="108" gradientUnits="userSpaceOnUse">
<stop stop-color="#4096FE"/>
<stop offset="1" stop-color="#2A72CC"/>
</linearGradient>
<linearGradient id="paint1_linear_8_302" x1="131" y1="70" x2="69" y2="126" gradientUnits="userSpaceOnUse">
<stop stop-color="#338FFF"/>
<stop offset="1" stop-color="#BBDEFF"/>
</linearGradient>
<linearGradient id="paint2_linear_8_302" x1="55.5713" y1="112.27" x2="113.928" y2="118.882" gradientUnits="userSpaceOnUse">
<stop stop-color="white" stop-opacity="0.25"/>
<stop offset="1" stop-color="white" stop-opacity="0"/>
</linearGradient>
</defs>
</svg>
