<svg width="140" height="40" viewBox="0 0 140 40" fill="none" xmlns="http://www.w3.org/2000/svg">
<path fill-rule="evenodd" clip-rule="evenodd" d="M6.99973 4.5531C10.5277 1.6046 14.9872 -0.00787121 19.5917 3.61162e-05C24.1963 -0.00879943 28.6561 1.60378 32.1836 4.5531H6.99973ZM32.0916 34.5688C28.5759 37.4667 24.1542 39.0487 19.5917 39.041C15.0308 39.0484 10.6109 37.4664 7.09717 34.5688H32.0916ZM28.9408 9.90984H36.6713C36.036 8.79067 35.2907 7.73714 34.4464 6.76477H4.73676C3.50036 8.19036 2.47577 9.78546 1.69434 11.5013H27.8039L28.9408 9.90984ZM0.871583 25.4032C0.386348 23.8662 0.0936016 22.2753 0 20.6667L39.1779 20.6613C39.118 21.7127 38.9713 22.7574 38.7394 23.7848H18.7417L17.5886 25.4032H0.871583ZM4.80732 32.3677H12.5758L13.7126 30.7493H35.6321C36.334 29.7588 36.9429 28.706 37.4511 27.6042H1.73242C2.52174 29.3314 3.55741 30.9358 4.80732 32.3677ZM39.0317 16.8744H23.7547L22.6341 18.455H0C0.085576 16.8508 0.371077 15.2634 0.849928 13.7293H38.3334C38.6526 14.7568 38.8862 15.8087 39.0317 16.8744Z" fill="#748296"/>
<path d="M50.6655 25.6084L56.7395 16.8638H50.9903V13.7187H62.099V15.8388L56.0899 24.5295H62.256V27.6422H50.6655V25.6084Z" fill="#748296"/>
<path fill-rule="evenodd" clip-rule="evenodd" d="M68.736 17.1765C65.0494 17.1765 63.2034 19.275 63.2034 22.5388C63.2034 26.0615 65.699 27.8579 69.2936 27.8579C70.7462 27.9247 72.1964 27.6838 73.5487 27.1512V24.7074C72.5054 25.0731 71.4064 25.2556 70.3005 25.2469C68.4112 25.2469 67.3285 24.8153 66.9604 23.7364H74.0954V21.9346C74.0954 18.9945 72.0816 17.1765 68.736 17.1765ZM70.5821 21.1578V21.5247H66.9604C66.9604 20.3756 67.4585 19.7714 68.866 19.7714C70.1274 19.7714 70.5821 20.354 70.5821 21.1578Z" fill="#748296"/>
<path fill-rule="evenodd" clip-rule="evenodd" d="M80.7323 13.0927H76.3311V16.0328H80.7323V13.0927ZM75.178 20.3539H76.6775V27.642H80.7539V17.3923H75.5244L75.178 20.3539Z" fill="#748296"/>
<path d="M83.1846 24.0115V20.3971H81.842V17.3923H83.1846V15.2992L87.261 14.3228V17.3923H89.6267L89.4752 20.3971H87.261V23.7364C87.261 24.5995 87.6779 24.9232 88.5873 24.9232C89.0224 24.9234 89.4543 24.8505 89.8649 24.7074V27.4047C88.9886 27.749 88.0508 27.9105 87.1094 27.8795C84.3539 27.8579 83.1846 26.3905 83.1846 24.0115Z" fill="#748296"/>
<path fill-rule="evenodd" clip-rule="evenodd" d="M91.1481 28.3109V30.9057C92.6622 31.299 94.2231 31.4841 95.7875 31.456C99.7394 31.456 101.58 30.2907 101.58 28.2786C101.58 26.3796 100.281 25.3816 98.1749 25.3816H95.8092C95.3328 25.3816 95.0729 25.3169 95.0729 25.0148C95.0729 24.6264 95.6143 24.4753 96.2423 24.4106C96.6464 24.4614 97.053 24.4902 97.4603 24.4969C100.086 24.4969 101.277 23.1752 101.277 21.0821C101.28 20.6464 101.144 20.221 100.887 19.8683H102.257L102.343 17.403H98.3048C97.581 17.2728 96.8478 17.2006 96.1123 17.1872C92.7072 17.1872 90.8449 18.3794 90.8449 21.039C90.748 22.2686 91.4402 23.4254 92.5719 23.9251C91.6496 24.1485 90.9953 24.9646 90.9803 25.9103C90.9803 27.2752 92.1713 27.9441 94.2771 27.9441H96.9839C97.7851 27.9441 98.0233 27.9441 98.0233 28.3541C98.0233 28.7641 97.0922 28.8935 95.5493 28.8935C94.0622 28.9039 92.5809 28.7078 91.1481 28.3109ZM96.1341 19.4042C97.3955 19.4042 97.8285 19.8358 97.8285 20.8554C97.8285 21.8696 97.39 22.258 96.1341 22.258C94.8782 22.258 94.4451 21.8966 94.4451 20.8554C94.4451 19.8142 94.8727 19.4042 96.1341 19.4042Z" fill="#748296"/>
<path fill-rule="evenodd" clip-rule="evenodd" d="M108.634 17.1765C104.942 17.1765 103.101 19.275 103.101 22.5388C103.101 26.0615 105.591 27.8579 109.213 27.8633C110.657 27.9245 112.097 27.6819 113.441 27.1512V24.7074C112.398 25.0736 111.299 25.2562 110.193 25.2469C108.304 25.2469 107.221 24.8153 106.853 23.7364H113.993V21.9346C113.993 18.9945 111.974 17.1765 108.634 17.1765ZM110.474 21.1578V21.5247H106.853C106.853 20.3756 107.351 19.7714 108.764 19.7714C110.02 19.7714 110.474 20.354 110.474 21.1578Z" fill="#748296"/>
<path fill-rule="evenodd" clip-rule="evenodd" d="M120.213 13.0927H115.812V16.0328H120.213V13.0927ZM114.637 20.3539H116.137V27.642H120.213V17.3923H114.989L114.637 20.3539Z" fill="#748296"/>
<path d="M121.865 27.2107V24.276C123.007 24.7442 124.229 24.9931 125.465 25.0096C126.504 25.0096 127.051 25.0096 127.051 24.5997C127.051 24.1897 125.968 23.9739 124.533 23.4776C122.644 22.8032 121.735 22.0696 121.735 20.3595C121.735 18.3095 123.294 17.1605 126.764 17.1605C128.025 17.1637 129.281 17.3306 130.499 17.6568V20.5105C129.6 20.1596 128.644 19.9768 127.679 19.9711C126.742 19.9711 125.898 19.9711 125.898 20.4026C125.898 20.8342 126.785 20.9421 128.177 21.3791C130.521 22.0696 131.214 22.868 131.214 24.5781C131.214 26.655 129.498 27.8149 126.179 27.8149C124.717 27.8622 123.257 27.6578 121.865 27.2107Z" fill="#748296"/>
<path d="M133.32 24.0115V20.3971H131.972V17.3923H133.32V15.2992L137.396 14.3228V17.3923H139.762L139.61 20.3971H137.396V23.7364C137.396 24.5995 137.807 24.9232 138.722 24.9232C139.157 24.9234 139.589 24.8505 140 24.7074V27.4047C139.124 27.7485 138.186 27.9101 137.244 27.8795C134.489 27.8579 133.32 26.3905 133.32 24.0115Z" fill="#748296"/>
</svg>
