<svg width="292" height="36" viewBox="0 0 292 36" fill="none" xmlns="http://www.w3.org/2000/svg">
<path d="M56.5 23V21.12L62.1 13H56.8V10.12H67.04V12.08L61.5 20.12H67.16V23H56.5Z" fill="white"/>
<path d="M73.6825 23.2C72.5758 23.2 71.5958 23.02 70.7425 22.66C69.9025 22.2867 69.2425 21.7334 68.7625 21C68.2958 20.2667 68.0625 19.36 68.0625 18.28C68.0625 16.7734 68.4892 15.5734 69.3425 14.68C70.1958 13.7734 71.4692 13.32 73.1625 13.32C74.7092 13.32 75.9158 13.7134 76.7825 14.5C77.6625 15.2867 78.1025 16.36 78.1025 17.72V19.38H71.5225C71.6958 19.8867 72.0358 20.2467 72.5425 20.46C73.0492 20.6734 73.7358 20.78 74.6025 20.78C75.1492 20.78 75.6958 20.7334 76.2425 20.64C76.8025 20.5334 77.2492 20.4134 77.5825 20.28V22.54C76.6492 22.98 75.3492 23.2 73.6825 23.2ZM71.5225 17.34H74.8625V17C74.8625 16.6267 74.7425 16.32 74.5025 16.08C74.2758 15.84 73.8692 15.72 73.2825 15.72C72.6292 15.72 72.1692 15.86 71.9025 16.14C71.6492 16.4067 71.5225 16.8067 71.5225 17.34Z" fill="white"/>
<path d="M79.767 12.26V9.54004H83.827V12.26H79.767ZM80.067 23V16.26H78.687L79.007 13.52H83.827V23H80.067Z" fill="white"/>
<path d="M89.6905 23.2C88.4238 23.2 87.5038 22.88 86.9305 22.24C86.3571 21.6 86.0705 20.7334 86.0705 19.64V16.3H84.8305V13.52H86.0705V11.58L89.8305 10.68V13.52H92.0105L91.8705 16.3H89.8305V19.36C89.8305 19.76 89.9305 20.0467 90.1305 20.22C90.3305 20.38 90.6371 20.46 91.0505 20.46C91.4371 20.46 91.8305 20.3934 92.2305 20.26V22.76C91.5238 23.0534 90.6771 23.2 89.6905 23.2Z" fill="white"/>
<path d="M97.3881 26.52C96.9215 26.52 96.4148 26.5 95.8681 26.46C95.3215 26.4334 94.8015 26.38 94.3081 26.3C93.8281 26.22 93.4281 26.1267 93.1081 26.02V23.62C93.4681 23.74 93.8815 23.84 94.3481 23.92C94.8281 24 95.3148 24.06 95.8081 24.1C96.3015 24.14 96.7548 24.16 97.1681 24.16C97.8748 24.16 98.4281 24.12 98.8281 24.04C99.2415 23.9734 99.4481 23.8467 99.4481 23.66C99.4481 23.5 99.3815 23.3934 99.2481 23.34C99.1148 23.3 98.8615 23.28 98.4881 23.28H95.9881C95.0148 23.28 94.2615 23.1267 93.7281 22.82C93.2081 22.5 92.9481 22.0267 92.9481 21.4C92.9481 20.52 93.4348 19.9067 94.4081 19.56C93.8615 19.28 93.4615 18.9267 93.2081 18.5C92.9548 18.0734 92.8281 17.5334 92.8281 16.88C92.8281 15.6534 93.2415 14.7534 94.0681 14.18C94.9081 13.6067 96.1148 13.32 97.6881 13.32C98.0215 13.32 98.3948 13.3467 98.8081 13.4C99.2215 13.44 99.5215 13.48 99.7081 13.52H103.428L103.348 15.8H102.088C102.328 16.1067 102.448 16.48 102.448 16.92C102.448 17.8934 102.161 18.6667 101.588 19.24C101.028 19.8 100.141 20.08 98.9281 20.08C98.7548 20.08 98.5681 20.0734 98.3681 20.06C98.1681 20.0334 97.9815 20.0134 97.8081 20C97.5148 20.0267 97.2615 20.08 97.0481 20.16C96.8348 20.24 96.7281 20.3734 96.7281 20.56C96.7281 20.6934 96.7881 20.7867 96.9081 20.84C97.0281 20.88 97.1948 20.9 97.4081 20.9H99.5881C100.561 20.9 101.328 21.1267 101.888 21.58C102.448 22.0334 102.728 22.7 102.728 23.58C102.728 24.5134 102.295 25.2334 101.428 25.74C100.561 26.26 99.2148 26.52 97.3881 26.52ZM97.7081 18.02C98.2948 18.02 98.7015 17.92 98.9281 17.72C99.1548 17.52 99.2681 17.1867 99.2681 16.72C99.2681 16.2534 99.1548 15.9134 98.9281 15.7C98.7015 15.4867 98.2948 15.38 97.7081 15.38C97.1615 15.38 96.7615 15.4867 96.5081 15.7C96.2681 15.9 96.1481 16.24 96.1481 16.72C96.1481 17.1734 96.2615 17.5067 96.4881 17.72C96.7281 17.92 97.1348 18.02 97.7081 18.02Z" fill="white"/>
<path d="M109.64 23.2C108.533 23.2 107.553 23.02 106.7 22.66C105.86 22.2867 105.2 21.7334 104.72 21C104.253 20.2667 104.02 19.36 104.02 18.28C104.02 16.7734 104.446 15.5734 105.3 14.68C106.153 13.7734 107.426 13.32 109.12 13.32C110.666 13.32 111.873 13.7134 112.74 14.5C113.62 15.2867 114.06 16.36 114.06 17.72V19.38H107.48C107.653 19.8867 107.993 20.2467 108.5 20.46C109.006 20.6734 109.693 20.78 110.56 20.78C111.106 20.78 111.653 20.7334 112.2 20.64C112.76 20.5334 113.206 20.4134 113.54 20.28V22.54C112.606 22.98 111.306 23.2 109.64 23.2ZM107.48 17.34H110.82V17C110.82 16.6267 110.7 16.32 110.46 16.08C110.233 15.84 109.826 15.72 109.24 15.72C108.586 15.72 108.126 15.86 107.86 16.14C107.606 16.4067 107.48 16.8067 107.48 17.34Z" fill="white"/>
<path d="M115.724 12.26V9.54004H119.784V12.26H115.724ZM116.024 23V16.26H114.644L114.964 13.52H119.784V23H116.024Z" fill="white"/>
<path d="M125.287 23.2C124.474 23.2 123.708 23.14 122.988 23.02C122.281 22.9134 121.721 22.7734 121.308 22.6V19.9C121.774 20.1134 122.327 20.28 122.967 20.4C123.621 20.52 124.174 20.58 124.628 20.58C125.108 20.58 125.467 20.5667 125.707 20.54C125.961 20.5134 126.088 20.4 126.088 20.2C126.088 19.9734 125.867 19.8 125.427 19.68C124.987 19.56 124.434 19.3867 123.768 19.16C122.901 18.8534 122.254 18.4934 121.827 18.08C121.401 17.6667 121.188 17.0667 121.188 16.28C121.188 15.3334 121.561 14.6067 122.308 14.1C123.054 13.58 124.227 13.32 125.827 13.32C126.441 13.32 127.074 13.3667 127.728 13.46C128.381 13.5534 128.894 13.66 129.268 13.78V16.42C128.868 16.2467 128.428 16.12 127.948 16.04C127.481 15.96 127.054 15.92 126.668 15.92C126.241 15.92 125.861 15.94 125.528 15.98C125.194 16.02 125.027 16.1334 125.027 16.32C125.027 16.5334 125.214 16.6867 125.588 16.78C125.974 16.8734 126.488 17.02 127.128 17.22C127.848 17.4334 128.408 17.6667 128.808 17.92C129.221 18.1734 129.508 18.48 129.668 18.84C129.841 19.2 129.927 19.6467 129.927 20.18C129.927 21.14 129.534 21.8867 128.747 22.42C127.974 22.94 126.821 23.2 125.287 23.2Z" fill="white"/>
<path d="M135.101 23.2C133.834 23.2 132.914 22.88 132.341 22.24C131.767 21.6 131.481 20.7334 131.481 19.64V16.3H130.241V13.52H131.481V11.58L135.241 10.68V13.52H137.421L137.281 16.3H135.241V19.36C135.241 19.76 135.341 20.0467 135.541 20.22C135.741 20.38 136.047 20.46 136.461 20.46C136.847 20.46 137.241 20.3934 137.641 20.26V22.76C136.934 23.0534 136.087 23.2 135.101 23.2Z" fill="white"/>
<path d="M143.56 23V19.6H147.24V23H143.56Z" fill="#0001FE"/>
<path d="M154.858 23V10.12H160.078C161.984 10.12 163.398 10.6267 164.318 11.64C165.238 12.64 165.698 14.3067 165.698 16.64C165.698 18.84 165.244 20.4534 164.338 21.48C163.431 22.4934 162.011 23 160.078 23H154.858ZM157.038 21.32H159.738C160.578 21.32 161.278 21.2 161.838 20.96C162.398 20.7067 162.818 20.24 163.098 19.56C163.378 18.88 163.518 17.9067 163.518 16.64C163.518 15.3734 163.391 14.3934 163.138 13.7C162.884 13.0067 162.478 12.52 161.918 12.24C161.371 11.96 160.644 11.82 159.738 11.82H157.038V21.32Z" fill="white"/>
<path d="M172.386 23.2C170.679 23.2 169.426 22.7734 168.626 21.92C167.839 21.0667 167.446 19.8467 167.446 18.26C167.446 16.6734 167.846 15.4534 168.646 14.6C169.446 13.7467 170.693 13.32 172.386 13.32C174.093 13.32 175.346 13.7467 176.146 14.6C176.946 15.4534 177.346 16.6734 177.346 18.26C177.346 19.8467 176.946 21.0667 176.146 21.92C175.359 22.7734 174.106 23.2 172.386 23.2ZM172.386 21.36C173.386 21.36 174.093 21.12 174.506 20.64C174.933 20.1467 175.146 19.3534 175.146 18.26C175.146 17.1667 174.933 16.38 174.506 15.9C174.093 15.42 173.386 15.18 172.386 15.18C171.399 15.18 170.693 15.42 170.266 15.9C169.853 16.38 169.646 17.1667 169.646 18.26C169.646 19.3534 169.853 20.1467 170.266 20.64C170.693 21.12 171.399 21.36 172.386 21.36Z" fill="white"/>
<path d="M184.127 23.2C182.46 23.2 181.2 22.78 180.347 21.94C179.494 21.0867 179.067 19.86 179.067 18.26C179.067 16.5934 179.534 15.3534 180.467 14.54C181.414 13.7267 182.674 13.32 184.247 13.32C184.9 13.32 185.447 13.3667 185.887 13.46C186.34 13.5534 186.774 13.7 187.187 13.9V15.52C186.494 15.1734 185.654 15 184.667 15C183.574 15 182.734 15.2467 182.147 15.74C181.56 16.22 181.267 17.06 181.267 18.26C181.267 19.3934 181.527 20.2267 182.047 20.76C182.567 21.28 183.427 21.54 184.627 21.54C185.574 21.54 186.434 21.36 187.207 21V22.66C186.767 22.8334 186.294 22.9667 185.787 23.06C185.294 23.1534 184.74 23.2 184.127 23.2Z" fill="white"/>
<path d="M192.36 23.2C191.226 23.2 190.353 22.8867 189.74 22.26C189.14 21.6334 188.84 20.7134 188.84 19.5V13.52H191.02V19.5C191.02 20.2067 191.193 20.7267 191.54 21.06C191.886 21.3934 192.42 21.56 193.14 21.56C193.673 21.56 194.166 21.46 194.62 21.26C195.073 21.06 195.466 20.7934 195.8 20.46V13.52H197.96V23H195.98L195.88 22.02C195.453 22.3534 194.946 22.6334 194.36 22.86C193.773 23.0867 193.106 23.2 192.36 23.2Z" fill="white"/>
<path d="M200.502 23V13.52H202.502L202.602 14.52C203.069 14.1467 203.582 13.8534 204.142 13.64C204.702 13.4267 205.302 13.32 205.942 13.32C206.622 13.32 207.149 13.4334 207.522 13.66C207.909 13.8734 208.202 14.1734 208.402 14.56C208.842 14.2 209.349 13.9067 209.922 13.68C210.496 13.44 211.182 13.32 211.982 13.32C213.076 13.32 213.882 13.6 214.402 14.16C214.922 14.72 215.182 15.58 215.182 16.74V23H213.042V16.96C213.042 16.2267 212.889 15.7134 212.582 15.42C212.276 15.1267 211.776 14.98 211.082 14.98C210.629 14.98 210.196 15.06 209.782 15.22C209.382 15.38 209.036 15.62 208.742 15.94C208.782 16.0867 208.809 16.24 208.822 16.4C208.836 16.56 208.842 16.7334 208.842 16.92V23H206.822V16.98C206.822 16.2867 206.702 15.78 206.462 15.46C206.222 15.14 205.769 14.98 205.102 14.98C204.636 14.98 204.189 15.0934 203.762 15.32C203.349 15.5334 202.976 15.7934 202.642 16.1V23H200.502Z" fill="white"/>
<path d="M222.236 23.2C220.582 23.2 219.302 22.7934 218.396 21.98C217.489 21.1667 217.036 19.92 217.036 18.24C217.036 16.72 217.422 15.52 218.196 14.64C218.969 13.76 220.142 13.32 221.716 13.32C223.156 13.32 224.236 13.7 224.956 14.46C225.689 15.2067 226.056 16.1734 226.056 17.36V19.12H219.116C219.222 20.04 219.556 20.6734 220.116 21.02C220.676 21.3667 221.529 21.54 222.676 21.54C223.156 21.54 223.649 21.4934 224.156 21.4C224.662 21.3067 225.102 21.1867 225.476 21.04V22.64C225.049 22.8267 224.556 22.9667 223.996 23.06C223.449 23.1534 222.862 23.2 222.236 23.2ZM219.116 17.7H224.136V17.04C224.136 16.3867 223.956 15.88 223.596 15.52C223.236 15.1467 222.629 14.96 221.776 14.96C220.762 14.96 220.062 15.18 219.676 15.62C219.302 16.06 219.116 16.7534 219.116 17.7Z" fill="white"/>
<path d="M228.178 23V13.52H230.178L230.278 14.52C230.705 14.1867 231.211 13.9067 231.798 13.68C232.398 13.44 233.058 13.32 233.778 13.32C235.005 13.32 235.898 13.6067 236.458 14.18C237.018 14.7534 237.298 15.6467 237.298 16.86V23H235.138V16.96C235.138 16.2267 234.985 15.7134 234.678 15.42C234.385 15.1267 233.825 14.98 232.998 14.98C232.505 14.98 232.018 15.08 231.538 15.28C231.071 15.48 230.678 15.74 230.358 16.06V23H228.178Z" fill="white"/>
<path d="M243.36 23.2C242.347 23.2 241.587 22.9334 241.08 22.4C240.587 21.8534 240.34 21.1134 240.34 20.18V15.22H238.94V13.52H240.34V11.34L242.5 10.68V13.52H245.02L244.88 15.22H242.5V20.06C242.5 20.6067 242.627 20.9934 242.88 21.22C243.134 21.4334 243.547 21.54 244.12 21.54C244.48 21.54 244.86 21.4734 245.26 21.34V22.88C244.74 23.0934 244.107 23.2 243.36 23.2Z" fill="white"/>
<path d="M249.888 23.2C249.288 23.2 248.728 23.0934 248.208 22.88C247.701 22.6667 247.295 22.3467 246.988 21.92C246.681 21.48 246.528 20.94 246.528 20.3C246.528 19.3934 246.835 18.6667 247.448 18.12C248.075 17.56 249.035 17.28 250.328 17.28H253.368V16.86C253.368 16.4067 253.295 16.0467 253.148 15.78C253.015 15.5134 252.761 15.32 252.388 15.2C252.028 15.08 251.495 15.02 250.788 15.02C249.668 15.02 248.621 15.1867 247.648 15.52V13.9C248.075 13.7267 248.595 13.5867 249.208 13.48C249.821 13.3734 250.481 13.32 251.188 13.32C252.575 13.32 253.628 13.6 254.348 14.16C255.081 14.72 255.448 15.6334 255.448 16.9V23H253.588L253.448 22.04C253.061 22.4134 252.581 22.7 252.008 22.9C251.448 23.1 250.741 23.2 249.888 23.2ZM250.468 21.64C251.121 21.64 251.688 21.5334 252.168 21.32C252.661 21.0934 253.061 20.7934 253.368 20.42V18.76H250.368C249.728 18.76 249.261 18.8867 248.968 19.14C248.688 19.38 248.548 19.7534 248.548 20.26C248.548 20.7534 248.715 21.1067 249.048 21.32C249.381 21.5334 249.855 21.64 250.468 21.64Z" fill="white"/>
<path d="M261.485 23.2C260.472 23.2 259.712 22.9334 259.205 22.4C258.712 21.8534 258.465 21.1134 258.465 20.18V15.22H257.065V13.52H258.465V11.34L260.625 10.68V13.52H263.145L263.005 15.22H260.625V20.06C260.625 20.6067 260.752 20.9934 261.005 21.22C261.259 21.4334 261.672 21.54 262.245 21.54C262.605 21.54 262.985 21.4734 263.385 21.34V22.88C262.865 23.0934 262.232 23.2 261.485 23.2Z" fill="white"/>
<path d="M265.853 11.54V9.74004H268.233V11.54H265.853ZM266.033 23V15.18H264.593L264.793 13.52H268.213V23H266.033Z" fill="white"/>
<path d="M275.296 23.2C273.589 23.2 272.336 22.7734 271.536 21.92C270.749 21.0667 270.356 19.8467 270.356 18.26C270.356 16.6734 270.756 15.4534 271.556 14.6C272.356 13.7467 273.603 13.32 275.296 13.32C277.003 13.32 278.256 13.7467 279.056 14.6C279.856 15.4534 280.256 16.6734 280.256 18.26C280.256 19.8467 279.856 21.0667 279.056 21.92C278.269 22.7734 277.016 23.2 275.296 23.2ZM275.296 21.36C276.296 21.36 277.003 21.12 277.416 20.64C277.843 20.1467 278.056 19.3534 278.056 18.26C278.056 17.1667 277.843 16.38 277.416 15.9C277.003 15.42 276.296 15.18 275.296 15.18C274.309 15.18 273.603 15.42 273.176 15.9C272.763 16.38 272.556 17.1667 272.556 18.26C272.556 19.3534 272.763 20.1467 273.176 20.64C273.603 21.12 274.309 21.36 275.296 21.36Z" fill="white"/>
<path d="M282.377 23V13.52H284.377L284.477 14.52C284.904 14.1867 285.411 13.9067 285.997 13.68C286.597 13.44 287.257 13.32 287.977 13.32C289.204 13.32 290.097 13.6067 290.657 14.18C291.217 14.7534 291.497 15.6467 291.497 16.86V23H289.337V16.96C289.337 16.2267 289.184 15.7134 288.877 15.42C288.584 15.1267 288.024 14.98 287.197 14.98C286.704 14.98 286.217 15.08 285.737 15.28C285.271 15.48 284.877 15.74 284.557 16.06V23H282.377Z" fill="white"/>
<g clip-path="url(#clip0_681_6)">
<path d="M17.5029 2.74787e-05C13.3894 -0.0067306 9.40525 1.45486 6.25189 4.12753H28.7511C25.5991 1.45439 21.6157 -0.0073084 17.5029 2.74787e-05V2.74787e-05ZM17.5029 35.4118C21.5777 35.4194 25.5266 33.9846 28.6656 31.3559H6.33738C9.47772 33.9841 13.4274 35.4189 17.5029 35.4118V35.4118ZM25.8565 8.98866H32.7598C32.1911 7.97497 31.5257 7.02006 30.7731 6.13759H4.24457C3.1377 7.42823 2.22222 8.87487 1.52686 10.4321H24.8396L25.8565 8.98866ZM17.3349 18.7467H0.002946C0.0860681 20.2055 0.348459 21.6481 0.784063 23.0412H15.7137L16.7425 21.5769H34.608C34.8139 20.6458 34.945 19.6993 35 18.7467H17.3349ZM21.2346 15.2813H34.8674C34.7384 14.3149 34.5294 13.3612 34.2425 12.4302H0.760486C0.332061 13.8243 0.0766067 15.2669 0 16.7247H20.2207L21.2346 15.2813ZM4.29468 29.3458H11.2363L12.2503 27.9024H31.8313C32.4599 27.0057 33.0037 26.0511 33.4554 25.0513H1.55044C2.25449 26.6099 3.17892 28.0565 4.29468 29.3458V29.3458Z" fill="white"/>
</g>
<defs>
<clipPath id="clip0_681_6">
<rect width="35" height="35.4118" fill="white"/>
</clipPath>
</defs>
</svg>