<?xml version="1.0" encoding="utf-8"?>
<!-- Generator: Adobe Illustrator 16.0.0, SVG Export Plug-In . SVG Version: 6.00 Build 0)  -->
<!DOCTYPE svg PUBLIC "-//W3C//DTD SVG 1.0//EN" "http://www.w3.org/TR/2001/REC-SVG-20010904/DTD/svg10.dtd">
<svg version="1.0" id="Layer_1" xmlns="http://www.w3.org/2000/svg" xmlns:xlink="http://www.w3.org/1999/xlink" x="0px" y="0px"
	 width="100px" height="100px" viewBox="0 0 100 100" enable-background="new 0 0 100 100" xml:space="preserve">
<path fill="none" stroke="#ffffff" stroke-width="2" stroke-linecap="round" stroke-linejoin="round" stroke-miterlimit="10" d="
	M50.001,90c-3.513,0-6.868-0.318-10-0.873v-9.998c3.131,0.555,6.487,0.871,10,0.871V90z"/>
<path fill="none" stroke="#ffffff" stroke-width="2" stroke-linecap="round" stroke-linejoin="round" stroke-miterlimit="10" d="
	M40.001,79.129C36.27,78.467,32.887,77.451,30,76.156v10c2.887,1.295,6.27,2.311,10.001,2.971V79.129z"/>
<path fill="none" stroke="#ffffff" stroke-width="2" stroke-linecap="round" stroke-linejoin="round" stroke-miterlimit="10" d="
	M40.001,69.998c-3.515,0-6.869-0.318-10.001-0.873v-9.996C33.132,59.684,36.487,60,40.001,60V69.998z"/>
<path fill="none" stroke="#ffffff" stroke-width="2" stroke-linecap="round" stroke-linejoin="round" stroke-miterlimit="10" d="
	M30,59.129c-3.731-0.662-7.114-1.678-10.001-2.973v9.998c2.887,1.295,6.27,2.311,10.001,2.971V59.129z"/>
<path fill="none" stroke="#ffffff" stroke-width="2" stroke-linecap="round" stroke-linejoin="round" stroke-miterlimit="10" d="
	M19.999,56.156C13.875,53.41,10,49.434,10,44.997v10.001c0,4.438,3.875,8.41,9.999,11.156V56.156z"/>
<path fill="none" stroke="#ffffff" stroke-width="2" stroke-linecap="round" stroke-linejoin="round" stroke-miterlimit="10" d="
	M20.134,66.215c-0.045-0.02-0.09-0.039-0.135-0.061v8.844c0,4.438,3.876,8.41,10.001,11.158v-10
	C24.444,73.664,20.771,70.158,20.134,66.215z"/>
<path fill="none" stroke="#ffffff" stroke-width="2" stroke-linecap="round" stroke-linejoin="round" stroke-miterlimit="10" d="
	M40.001,39.13C36.27,38.468,32.887,37.453,30,36.159v9.999c2.887,1.296,6.27,2.311,10.001,2.972V39.13z"/>
<path fill="none" stroke="#ffffff" stroke-width="2" stroke-linecap="round" stroke-linejoin="round" stroke-miterlimit="10" d="
	M30,36.159C23.875,33.412,19.999,29.438,19.999,25V35c0,4.438,3.876,8.411,10.001,11.158V36.159z"/>
<ellipse transform="matrix(0.3827 0.9239 -0.9239 0.3827 98.2051 -30.7804)" fill="none" stroke="#ffffff" stroke-width="2" stroke-linecap="round" stroke-linejoin="round" stroke-miterlimit="10" cx="72.136" cy="58.099" rx="29.777" ry="14.89"/>
<path fill="none" stroke="#ffffff" stroke-width="2" stroke-linecap="round" stroke-linejoin="round" stroke-miterlimit="10" d="
	M49.212,67.596c1.335,3.221,2.897,6.178,4.596,8.84l9.169-3.799c-1.697-2.66-3.265-5.617-4.596-8.838L49.212,67.596z"/>
<path fill="none" stroke="#ffffff" stroke-width="2" stroke-linecap="round" stroke-linejoin="round" stroke-miterlimit="10" d="
	M60.329,84.477c-2.282-2.156-4.498-4.873-6.521-8.041l9.169-3.799c2.023,3.168,4.24,5.885,6.525,8.041L60.329,84.477z"/>
<path fill="none" stroke="#ffffff" stroke-width="2" stroke-linecap="round" stroke-linejoin="round" stroke-miterlimit="10" d="
	M49.212,67.596c-1.335-3.221-2.318-6.418-2.999-9.5l9.169-3.797c0.679,3.082,1.666,6.277,2.999,9.5L49.212,67.596z"/>
<path fill="none" stroke="#ffffff" stroke-width="2" stroke-linecap="round" stroke-linejoin="round" stroke-miterlimit="10" d="
	M60.329,84.477c4.846,4.574,9.964,6.617,14.036,4.934l9.167-3.801c-4.068,1.688-9.187-0.355-14.03-4.932L60.329,84.477z"/>
<path fill="none" stroke="#ffffff" stroke-width="2" stroke-linecap="round" stroke-linejoin="round" stroke-miterlimit="10" d="
	M55.382,54.299c-0.812-3.674-1.164-7.161-1.073-10.301l-9.17,3.799c-0.09,3.139,0.265,6.625,1.074,10.299L55.382,54.299z"/>
<path fill="none" stroke="#ffffff" stroke-width="2" stroke-linecap="round" stroke-linejoin="round" stroke-miterlimit="10" d="
	M54.309,43.998c0.191-6.659,2.363-11.723,6.432-13.409l-9.17,3.8c-4.065,1.685-6.239,6.747-6.432,13.408L54.309,43.998z"/>
<path fill="none" stroke="#ffffff" stroke-width="2" stroke-linecap="round" stroke-linejoin="round" stroke-miterlimit="10" d="
	M56.05,79.672C54.096,79.877,52.08,80,50.001,80v10c3.512,0,6.867-0.318,9.999-0.873v-4.961
	C58.649,82.855,57.323,81.352,56.05,79.672z"/>
<path fill="none" stroke="#ffffff" stroke-width="2" stroke-linecap="round" stroke-linejoin="round" stroke-miterlimit="10" d="
	M60,84.166v4.961c1.716-0.305,3.347-0.689,4.9-1.139C63.266,87.029,61.617,85.736,60,84.166z"/>
<path fill="none" stroke="#ffffff" stroke-width="2" stroke-linecap="round" stroke-linejoin="round" stroke-miterlimit="10" d="
	M49.901,69.145c-3.104,0.543-6.427,0.854-9.9,0.854c-7.636,0-14.583-1.439-19.878-3.789C21.36,73.926,34.251,80,50.001,80
	c2.077,0,4.104-0.107,6.064-0.307C53.781,76.684,51.679,73.117,49.901,69.145z"/>
<path fill="none" stroke="#ffffff" stroke-width="2" stroke-linecap="round" stroke-linejoin="round" stroke-miterlimit="10" d="
	M49.214,67.596c-1.116-2.693-1.988-5.371-2.647-7.982C44.452,59.857,42.264,60,40.001,60v9.998c3.474,0,6.793-0.313,9.898-0.857
	C49.67,68.629,49.433,68.123,49.214,67.596z"/>
<path fill="none" stroke="#ffffff" stroke-width="2" stroke-linecap="round" stroke-linejoin="round" stroke-miterlimit="10" d="
	M45.142,49.786C30.889,48.623,19.999,42.453,19.999,35V33.84C13.875,36.587,10,40.561,10,44.997C10,53.281,23.432,60,40.001,60
	c2.26,0,4.451-0.139,6.568-0.375C45.696,56.162,45.228,52.842,45.142,49.786z"/>
<path fill="none" stroke="#ffffff" stroke-width="2" stroke-linecap="round" stroke-linejoin="round" stroke-miterlimit="10" d="
	M51.573,34.386l9.171-3.798c3.7-1.531,8.27,0.019,12.713,3.75c4.088-2.563,6.546-5.805,6.546-9.338c0-8.283-13.434-15-30.002-15
	c-16.57,0-30.002,6.717-30.002,15c0,7.712,11.645,14.059,26.62,14.899C47.703,37.256,49.35,35.308,51.573,34.386z"/>
<path fill="none" stroke="#ffffff" stroke-width="2" stroke-linecap="round" stroke-linejoin="round" stroke-miterlimit="10" d="
	M46.625,39.891c-2.293-0.134-4.514-0.387-6.624-0.761v9.999c1.654,0.293,3.373,0.514,5.14,0.661
	C45.031,45.953,45.531,42.56,46.625,39.891z"/>
<path fill="none" stroke="#ffffff" stroke-width="2" stroke-linecap="round" stroke-linejoin="round" stroke-miterlimit="10" d="
	M78.52,39.635c0.954-1.459,1.483-3.017,1.483-4.636V25c0,3.531-2.482,6.758-6.571,9.317C75.168,35.773,76.882,37.559,78.52,39.635z"
	/>
</svg>
