<?xml version="1.0" encoding="iso-8859-1"?>
<!-- Generator: Adobe Illustrator 19.0.1, SVG Export Plug-In . SVG Version: 6.00 Build 0)  -->
<svg version="1.1" xmlns="http://www.w3.org/2000/svg" xmlns:xlink="http://www.w3.org/1999/xlink" x="0px" y="0px"
	 viewBox="0 0 128 128" style="enable-background:new 0 0 128 128;" xml:space="preserve">
<g id="_x36_">
	<path id="_x33__4_" style="fill:#ffffff;" d="M87.021,86.337c0.336-25.259-0.12-64.738-5.94-70.774
		c-0.672-0.696-1.428-1.044-2.256-1.044c-0.732,0-1.368,0.276-1.92,0.744v-2.196c0-3.468-1.356-6.756-3.828-9.228
		C70.594,1.368,67.318,0,63.838,0C56.626,0,50.77,5.868,50.77,13.068v1.764c-0.372-0.204-0.804-0.312-1.272-0.312
		c-0.828,0-1.584,0.348-2.256,1.044c-5.796,6.012-6.264,45.179-5.952,70.45c-7.836,8.112-5.976,15.035-5.976,15.035l6.336,1.74
		c0.06,1.872,0.108,3.264,0.132,4.068l0.048,1.164h2.868v0.564h2.652V128h2.928v-19.415h2.004v-0.564h1.68v4.008h1.296v2.052h2.148
		V128h3.636v-13.92h2.508v-2.052h1.212v2.052h2.136V128h3.636v-13.92h2.508v-2.052h1.308v-4.008h1.356v0.564h2.364V128h2.94v-19.415
		h2.28v-0.564h3.204l0.036-1.164c0.024-0.816,0.084-2.232,0.144-4.152l6.012-1.656C92.685,101.049,94.497,94.305,87.021,86.337z
		 M48.97,17.231c0.204-0.204,0.372-0.312,0.528-0.312c0.06,0,0.564,0.048,1.272,1.416v12.336h-5.304
		C46.27,23.807,47.398,18.863,48.97,17.231z M45.082,34.271h5.688v10.656h-6.432C44.53,41.135,44.77,37.535,45.082,34.271z
		 M44.17,48.526h6.6v13.428h-6.996C43.858,57.382,43.978,52.846,44.17,48.526z M43.702,83.757c-0.06-5.82-0.06-12.012,0.024-18.203
		h7.044v8.028c-1.704,3.96-3.924,7.548-6.816,9.96C43.87,83.613,43.786,83.685,43.702,83.757z M44.146,105.621
		c-0.024-0.696-0.048-1.416-0.072-2.16l7.86,2.16H44.146z M57.286,98.073c0.192-11.064,0.672-40.163,0.672-52.702
		c0-12.876,4.296-21.059,5.916-22.331c1.62,1.272,5.928,9.456,5.928,22.331c0,12.54,0.48,41.639,0.66,52.702H57.286z M73.305,60.43
		c-0.468-2.376-0.816-4.56-1.056-6.396v-0.156c-0.036-3.264-0.048-6.18-0.048-8.508c0-14.592-5.4-24.827-8.328-24.827
		c-2.916,0-8.316,10.236-8.316,24.827c0,2.784-0.024,6.396-0.06,10.44c0,0.024,0,0.036-0.012,0.048
		c-0.264,1.848-0.636,3.936-1.116,6.144V13.068c0-5.22,4.248-9.468,9.468-9.468c2.52,0,4.896,0.984,6.684,2.784
		c1.8,1.8,2.784,4.176,2.784,6.684V60.43z M84.549,61.954h-7.644V48.526h7.248C84.345,52.846,84.465,57.382,84.549,61.954z
		 M83.985,44.927h-7.08V34.271h6.336C83.553,37.535,83.793,41.135,83.985,44.927z M78.825,16.919c0.144,0,0.324,0.108,0.528,0.312
		c1.572,1.632,2.7,6.576,3.504,13.44h-5.952V19.919C77.937,16.955,78.789,16.919,78.825,16.919z M84.177,105.621h-8.112l8.184-2.256
		C84.225,104.145,84.201,104.901,84.177,105.621z M84.621,84.021c-0.192-0.156-0.384-0.312-0.576-0.48
		c-3.072-2.568-5.388-6.456-7.14-10.716v-7.272h7.692C84.681,71.83,84.681,78.13,84.621,84.021z M68.485,37.063v2.321h-9.172v-2.321
		c0-2.522,2.064-4.586,4.586-4.586c1.26,0,2.408,0.517,3.24,1.346C67.969,34.655,68.485,35.8,68.485,37.063z"/>
</g>
<g id="Layer_1">
</g>
</svg>
