<svg id="Layer_1" data-name="Layer 1" xmlns="http://www.w3.org/2000/svg" viewBox="0 0 32 32"><defs><style>.cls-1{fill:none;stroke:#fff;stroke-miterlimit:10;}</style></defs><title>hashrate</title><rect class="cls-1" x="4.5" y="4.5" width="23" height="23"/><rect class="cls-1" x="6.5" y="6.5" width="10" height="19"/><circle class="cls-1" cx="21.75" cy="10.25" r="3.75"/><polyline class="cls-1" points="21.13 9.63 21.75 10.25 23 9"/><polyline class="cls-1" points="15 20.5 12.87 20.5 11.94 22.59 10.69 19.72 9.75 21.62 9.13 21.5 8 21.5"/><circle class="cls-1" cx="19.5" cy="19.5" r="1"/><circle class="cls-1" cx="24.5" cy="19.5" r="1"/><circle class="cls-1" cx="24.5" cy="23.5" r="1"/><circle class="cls-1" cx="19.5" cy="23.5" r="1"/><line class="cls-1" x1="18" y1="16.5" x2="26" y2="16.5"/><line class="cls-1" x1="8" y1="16.5" x2="15" y2="16.5"/><line class="cls-1" x1="8" y1="10.5" x2="15" y2="10.5"/><line class="cls-1" x1="8" y1="12.5" x2="15" y2="12.5"/><line class="cls-1" x1="9" y1="14.5" x2="12" y2="8.5"/><line class="cls-1" x1="11" y1="14.5" x2="14" y2="8.5"/></svg>