<svg width="86" height="86" viewBox="0 0 86 86" fill="none" xmlns="http://www.w3.org/2000/svg">
<path fill-rule="evenodd" clip-rule="evenodd" d="M76.7648 69.2808C82.4401 62.0053 85.8213 52.8528 85.8213 42.9107C85.8213 19.2118 66.6096 0 42.9107 0C19.2118 0 0 19.2118 0 42.9107C0 66.6096 19.2118 85.8213 42.9107 85.8213C52.9525 85.8213 62.1888 82.3719 69.4992 76.5934L79.9966 78.6156L76.7648 69.2808Z" fill="url(#paint0_linear_108_3)"/>
<path fill-rule="evenodd" clip-rule="evenodd" d="M24.254 36.3808C27.8604 36.3808 30.7839 39.3043 30.7839 42.9107C30.7839 46.517 27.8604 49.4406 24.254 49.4406C20.6476 49.4406 17.7241 46.517 17.7241 42.9107C17.7241 39.3043 20.6476 36.3808 24.254 36.3808ZM49.4407 42.9107C49.4407 39.3043 46.5172 36.3808 42.9108 36.3808C39.3045 36.3808 36.3809 39.3043 36.3809 42.9107C36.3809 46.517 39.3045 49.4406 42.9108 49.4406C46.5172 49.4406 49.4407 46.517 49.4407 42.9107ZM68.0975 42.9107C68.0975 39.3043 65.174 36.3808 61.5676 36.3808C57.9613 36.3808 55.0377 39.3043 55.0377 42.9107C55.0377 46.517 57.9613 49.4406 61.5676 49.4406C65.174 49.4406 68.0975 46.517 68.0975 42.9107Z" fill="white"/>
<defs>
<linearGradient id="paint0_linear_108_3" x1="75" y1="5.31867e-09" x2="-8" y2="109" gradientUnits="userSpaceOnUse">
<stop stop-color="#0001FE"/>
<stop offset="1" stop-color="white"/>
</linearGradient>
</defs>
</svg>
