<svg width="196" height="196" viewBox="0 0 196 196" fill="none" xmlns="http://www.w3.org/2000/svg">
<path d="M109.199 32.7612C102.797 29.4371 95.3327 28.8641 88.5314 31.1456L43.6661 43.145C36.585 44.5763 30.4075 48.798 26.5291 54.8714C23.1988 61.2607 22.6247 68.7114 24.9233 75.548L36.9448 120.33C38.3788 127.398 42.6083 133.564 48.693 137.435C55.0941 140.759 62.5588 141.332 69.4081 139.038L114.273 127.038C121.306 125.62 127.532 121.385 131.41 115.312C134.693 108.935 135.315 101.472 133.016 94.6353L120.995 49.8534C119.513 42.7984 115.283 36.6324 109.199 32.7612" fill="url(#paint0_linear_8_324)"/>
<g filter="url(#filter0_b_8_324)">
<path d="M154.377 63.5359C148.594 58.2484 140.918 55.5507 133.134 56.0363H82.6469C74.809 55.5507 67.1333 58.2484 61.3494 63.5359C56.0521 69.309 53.3493 76.9704 53.8358 84.7938V135.187C53.3493 143.01 56.0521 150.672 61.3494 156.445C67.1333 161.732 74.809 164.43 82.6469 163.944H133.134C140.918 164.43 148.648 161.732 154.431 156.445C159.675 150.672 162.432 143.01 161.945 135.187V84.7938C162.377 76.9704 159.675 69.309 154.377 63.5359" fill="url(#paint1_linear_8_324)"/>
</g>
<mask id="path-3-inside-1_8_324" fill="white">
<path d="M138.752 99.7414L102.374 136.16C100.482 137.995 97.9952 139.02 95.4006 139.02H82.6978C81.9951 139.02 81.3464 138.75 80.8599 138.265C80.3734 137.779 80.1572 137.132 80.1572 136.43L80.4816 123.643C80.5356 121.107 81.5626 118.733 83.3464 116.953L109.13 91.2167C109.563 90.785 110.32 90.785 110.752 91.2167L119.779 100.173C120.374 100.767 121.239 101.144 122.158 101.144C124.158 101.144 125.725 99.5256 125.725 97.5832C125.725 96.6121 125.347 95.7488 124.752 95.1013C124.59 94.8855 115.995 86.3608 115.995 86.3608C115.455 85.8213 115.455 84.904 115.995 84.3645L119.617 80.6956C122.968 77.3505 128.374 77.3505 131.725 80.6956L138.752 87.7096C142.05 91.0008 142.05 96.3962 138.752 99.7414"/>
</mask>
<path d="M138.752 99.7414L102.374 136.16C100.482 137.995 97.9952 139.02 95.4006 139.02H82.6978C81.9951 139.02 81.3464 138.75 80.8599 138.265C80.3734 137.779 80.1572 137.132 80.1572 136.43L80.4816 123.643C80.5356 121.107 81.5626 118.733 83.3464 116.953L109.13 91.2167C109.563 90.785 110.32 90.785 110.752 91.2167L119.779 100.173C120.374 100.767 121.239 101.144 122.158 101.144C124.158 101.144 125.725 99.5256 125.725 97.5832C125.725 96.6121 125.347 95.7488 124.752 95.1013C124.59 94.8855 115.995 86.3608 115.995 86.3608C115.455 85.8213 115.455 84.904 115.995 84.3645L119.617 80.6956C122.968 77.3505 128.374 77.3505 131.725 80.6956L138.752 87.7096C142.05 91.0008 142.05 96.3962 138.752 99.7414" fill="white"/>
<path d="M102.374 136.16L102.513 136.304L102.515 136.302L102.374 136.16ZM80.1572 136.43L79.9572 136.425V136.43H80.1572ZM80.4816 123.643L80.6815 123.648L80.6815 123.647L80.4816 123.643ZM83.3464 116.953L83.4877 117.094L83.4877 117.094L83.3464 116.953ZM109.13 91.2167L108.989 91.0751L108.989 91.0751L109.13 91.2167ZM110.752 91.2167L110.611 91.3582L110.611 91.3586L110.752 91.2167ZM119.779 100.173L119.921 100.031L119.92 100.031L119.779 100.173ZM124.752 95.1013L124.592 95.2215L124.598 95.2294L124.605 95.2366L124.752 95.1013ZM115.995 86.3608L115.854 86.5024L115.855 86.5028L115.995 86.3608ZM115.995 84.3645L116.137 84.5061L116.138 84.505L115.995 84.3645ZM119.617 80.6956L119.476 80.5541L119.475 80.5551L119.617 80.6956ZM131.725 80.6956L131.584 80.8372L131.725 80.6956ZM138.752 87.7096L138.894 87.5681L138.894 87.5681L138.752 87.7096ZM138.611 99.6L102.232 136.019L102.515 136.302L138.894 99.8827L138.611 99.6ZM102.234 136.017C100.379 137.816 97.9419 138.82 95.4006 138.82V139.22C98.0486 139.22 100.585 138.174 102.513 136.304L102.234 136.017ZM95.4006 138.82H82.6978V139.22H95.4006V138.82ZM82.6978 138.82C82.0477 138.82 81.45 138.571 81.0012 138.123L80.7186 138.406C81.2429 138.929 81.9424 139.22 82.6978 139.22V138.82ZM81.0012 138.123C80.5598 137.682 80.3572 137.09 80.3572 136.43H79.9572C79.9572 137.173 80.1871 137.875 80.7186 138.406L81.0012 138.123ZM80.3572 136.435L80.6815 123.648L80.2816 123.638L79.9573 136.425L80.3572 136.435ZM80.6815 123.647C80.7345 121.164 81.7401 118.839 83.4877 117.094L83.2052 116.811C81.3852 118.628 80.3368 121.051 80.2816 123.639L80.6815 123.647ZM83.4877 117.094L109.272 91.3582L108.989 91.0751L83.2052 116.811L83.4877 117.094ZM109.272 91.3582C109.626 91.0045 110.256 91.0045 110.611 91.3582L110.893 91.0751C110.383 90.5655 109.5 90.5655 108.989 91.0751L109.272 91.3582ZM110.611 91.3586L119.638 100.315L119.92 100.031L110.893 91.0747L110.611 91.3586ZM119.638 100.315C120.27 100.945 121.185 101.344 122.158 101.344V100.944C121.292 100.944 120.478 100.588 119.921 100.031L119.638 100.315ZM122.158 101.344C124.27 101.344 125.925 99.6344 125.925 97.5832H125.525C125.525 99.4167 124.046 100.944 122.158 100.944V101.344ZM125.925 97.5832C125.925 96.5584 125.526 95.6477 124.9 94.9661L124.605 95.2366C125.168 95.8498 125.525 96.6657 125.525 97.5832H125.925ZM124.912 94.9812C124.892 94.9549 124.837 94.8968 124.771 94.8286C124.698 94.7535 124.597 94.6503 124.472 94.5233C124.221 94.2691 123.871 93.9181 123.457 93.5033C122.628 92.6735 121.539 91.5875 120.454 90.5084C119.37 89.4292 118.29 88.3568 117.482 87.5542C117.078 87.1529 116.741 86.8191 116.506 86.5856C116.388 86.4688 116.296 86.3771 116.233 86.3146C116.201 86.2834 116.177 86.2594 116.161 86.2433C116.153 86.2352 116.147 86.2291 116.142 86.225C116.14 86.2229 116.139 86.2214 116.138 86.2204C116.137 86.2198 116.137 86.2194 116.137 86.2192C116.137 86.2191 116.136 86.219 116.136 86.2189C116.136 86.2188 116.136 86.2188 115.995 86.3608C115.855 86.5028 115.855 86.5028 115.855 86.5029C115.855 86.503 115.855 86.5031 115.855 86.5032C115.855 86.5034 115.856 86.5038 115.856 86.5043C115.857 86.5054 115.859 86.5069 115.861 86.509C115.865 86.5131 115.871 86.5192 115.879 86.5272C115.895 86.5434 115.92 86.5673 115.951 86.5986C116.014 86.6611 116.107 86.7527 116.224 86.8695C116.459 87.103 116.796 87.4368 117.2 87.8381C118.008 88.6406 119.088 89.7129 120.172 90.7919C121.256 91.871 122.346 92.9566 123.174 93.7859C123.588 94.2006 123.937 94.551 124.187 94.8043C124.312 94.9311 124.412 95.0331 124.483 95.1067C124.519 95.1435 124.547 95.1727 124.567 95.1939C124.59 95.219 124.595 95.2252 124.592 95.2215L124.912 94.9812ZM116.137 86.2192C115.674 85.7578 115.674 84.9675 116.137 84.5061L115.854 84.2229C115.235 84.8406 115.235 85.8847 115.854 86.5024L116.137 86.2192ZM116.138 84.505L119.759 80.8361L119.475 80.5551L115.853 84.224L116.138 84.505ZM119.758 80.8372C123.032 77.57 128.311 77.57 131.584 80.8372L131.867 80.5541C128.437 77.131 122.905 77.131 119.476 80.5541L119.758 80.8372ZM131.584 80.8372L138.611 87.8512L138.894 87.5681L131.867 80.5541L131.584 80.8372ZM138.611 87.8512C141.83 91.0636 141.831 96.3331 138.61 99.601L138.895 99.8818C142.268 96.4594 142.27 90.9381 138.894 87.5681L138.611 87.8512Z" fill="url(#paint2_linear_8_324)" fill-opacity="0.5" mask="url(#path-3-inside-1_8_324)"/>
<defs>
<filter id="filter0_b_8_324" x="29.7799" y="31.9805" width="156.22" height="156.02" filterUnits="userSpaceOnUse" color-interpolation-filters="sRGB">
<feFlood flood-opacity="0" result="BackgroundImageFix"/>
<feGaussianBlur in="BackgroundImage" stdDeviation="12"/>
<feComposite in2="SourceAlpha" operator="in" result="effect1_backgroundBlur_8_324"/>
<feBlend mode="normal" in="SourceGraphic" in2="effect1_backgroundBlur_8_324" result="shape"/>
</filter>
<linearGradient id="paint0_linear_8_324" x1="66.085" y1="37.0958" x2="91.7647" y2="133.112" gradientUnits="userSpaceOnUse">
<stop stop-color="#D276EE"/>
<stop offset="1" stop-color="#A13BBF"/>
</linearGradient>
<linearGradient id="paint1_linear_8_324" x1="54" y1="70" x2="107.89" y2="164" gradientUnits="userSpaceOnUse">
<stop stop-color="#CB35F8"/>
<stop offset="1" stop-color="#F4D3FD"/>
</linearGradient>
<linearGradient id="paint2_linear_8_324" x1="86.7356" y1="98.5933" x2="138.591" y2="98.8807" gradientUnits="userSpaceOnUse">
<stop stop-color="white"/>
<stop offset="1" stop-color="white" stop-opacity="0"/>
</linearGradient>
</defs>
</svg>
